# xmcd CD database file
#
# Track frame offsets:
#	150
#	21536
#	41911
#	77848
#	100338
#	114316
#	143623
#	156928
#	176138
#	189796
#	201118
#	224868
#	241336
#	269561
#
# Disc length: 3924 seconds
#
# Revision: 2
# Processed by: cddbd v1.5.2PL0 Copyright (c) Steve Scherf et al.
# Submitted via: CDex 1.51
#
DISCID=d00f520e
DTITLE=Billy Paul -  - The Best Of Billy Paul
DYEAR=1900
DGENRE=Soul
TTITLE0=Billy Paul - Me And Mrs. Jones
TTITLE1=Billy Paul - Billy's Back Home
TTITLE2=Billy Paul - Black Wonders of The World
TTITLE3=Billy Paul - Let 'em In
TTITLE4=Billy Paul - Be Truthful To Me
TTITLE5=Billy Paul - Your Song
TTITLE6=Billy Paul - Thanks For Saving My Life
TTITLE7=Billy Paul - This Is Your Life
TTITLE8=Billy Paul - Bluesette
TTITLE9=Billy Paul - Don't Think Twice, It's All Right
TTITLE10=Billy Paul - Am I Black Enough For You
TTITLE11=Billy Paul - Love Buddies
TTITLE12=Billy Paul - I Think I'll Stay Home Today
TTITLE13=Billy Paul - When Love Is New
EXTD=
EXTT0=
EXTT1=
EXTT2=
EXTT3=
EXTT4=
EXTT5=
EXTT6=
EXTT7=
EXTT8=
EXTT9=
EXTT10=
EXTT11=
EXTT12=
EXTT13=
PLAYORDER=
